HIERARCHY
ROOT Hips
{
	OFFSET 0.00000 0.00000 0.00000
	CHANNELS 6 Xposition Yposition Zposition Zrotation Yrotation Xrotation 
	JOINT LHipJoint
	{
		OFFSET 0 0 0
		CHANNELS 3 Zrotation Yrotation Xrotation
		JOINT LeftUpLeg
		{
			OFFSET 1.84395 -1.68683 0.74144
			CHANNELS 3 Zrotation Yrotation Xrotation
			JOINT LeftLeg
			{
				OFFSET 2.27037 -6.23779 0.00000
				CHANNELS 3 Zrotation Yrotation Xrotation
				JOINT LeftFoot
				{
					OFFSET 2.56918 -7.05877 0.00000
					CHANNELS 3 Zrotation Yrotation Xrotation
					JOINT LeftToeBase
					{
						OFFSET 0.22276 -0.61202 1.71784
						CHANNELS 3 Zrotation Yrotation Xrotation
						End Site
						{
							OFFSET 0.00000 -0.00000 0.91613
						}
					}
				}
			}
		}
	}
	JOINT RHipJoint
	{
		OFFSET 0 0 0
		CHANNELS 3 Zrotation Yrotation Xrotation
		JOINT RightUpLeg
		{
			OFFSET -1.76833 -1.68684 0.74144
			CHANNELS 3 Zrotation Yrotation Xrotation
			JOINT RightLeg
			{
				OFFSET -2.49360 -6.85110 0.00000
				CHANNELS 3 Zrotation Yrotation Xrotation
				JOINT RightFoot
				{
					OFFSET -2.55538 -7.02085 0.00000
					CHANNELS 3 Zrotation Yrotation Xrotation
					JOINT RightToeBase
					{
						OFFSET -0.21516 -0.59115 1.68050
						CHANNELS 3 Zrotation Yrotation Xrotation
						End Site
						{
							OFFSET -0.00000 -0.00000 0.89604
						}
					}
				}
			}
		}
	}
	JOINT LowerBack
	{
		OFFSET 0 0 0
		CHANNELS 3 Zrotation Yrotation Xrotation
		JOINT Spine
		{
			OFFSET 0.06382 1.72312 -0.19613
			CHANNELS 3 Zrotation Yrotation Xrotation
			JOINT Spine1
			{
				OFFSET -0.00055 1.73507 0.23859
				CHANNELS 3 Zrotation Yrotation Xrotation
				JOINT Neck
				{
					OFFSET 0 0 0
					CHANNELS 3 Zrotation Yrotation Xrotation
					JOINT Neck1
					{
						OFFSET 0.03638 1.65562 0.09633
						CHANNELS 3 Zrotation Yrotation Xrotation
						JOINT Head
						{
							OFFSET 0.06388 1.62807 -0.32386
							CHANNELS 3 Zrotation Yrotation Xrotation
							End Site
							{
								OFFSET 0.00995 1.67644 -0.12021
							}
						}
					}
				}
				JOINT LeftShoulder
				{
					OFFSET 0 0 0
					CHANNELS 3 Zrotation Yrotation Xrotation
					JOINT LeftArm
					{
						OFFSET 3.09648 1.42991 0.28122
						CHANNELS 3 Zrotation Yrotation Xrotation
						JOINT LeftForeArm
						{
							OFFSET 5.11878 -0.00000 -0.00000
							CHANNELS 3 Zrotation Yrotation Xrotation
							JOINT LeftHand
							{
								OFFSET 3.59971 -0.00000 0.00000
								CHANNELS 3 Zrotation Yrotation Xrotation
								JOINT LeftFingerBase
								{
									OFFSET 0 0 0
									CHANNELS 3 Zrotation Yrotation Xrotation
									JOINT LeftHandIndex1
									{
										OFFSET 0.62877 -0.00000 0.00000
										CHANNELS 3 Zrotation Yrotation Xrotation
										End Site
										{
											OFFSET 0.50693 -0.00000 0.00000
										}
									}
								}
								JOINT LThumb
								{
									OFFSET 0 0 0
									CHANNELS 3 Zrotation Yrotation Xrotation
									End Site
									{
										OFFSET 0.51467 -0.00000 0.51467
									}
								}
							}
						}
					}
				}
				JOINT RightShoulder
				{
					OFFSET 0 0 0
					CHANNELS 3 Zrotation Yrotation Xrotation
					JOINT RightArm
					{
						OFFSET -3.33565 1.14597 0.05047
						CHANNELS 3 Zrotation Yrotation Xrotation
						JOINT RightForeArm
						{
							OFFSET -5.49020 -0.00000 0.00000
							CHANNELS 3 Zrotation Yrotation Xrotation
							JOINT RightHand
							{
								OFFSET -3.20659 -0.00000 -0.00000
								CHANNELS 3 Zrotation Yrotation Xrotation
								JOINT RightFingerBase
								{
									OFFSET 0 0 0
									CHANNELS 3 Zrotation Yrotation Xrotation
									JOINT RightHandIndex1
									{
										OFFSET -0.69188 -0.00000 0.00000
										CHANNELS 3 Zrotation Yrotation Xrotation
										End Site
										{
											OFFSET -0.55781 -0.00000 0.00000
										}
									}
								}
								JOINT RThumb
								{
									OFFSET 0 0 0
									CHANNELS 3 Zrotation Yrotation Xrotation
									End Site
									{
										OFFSET -0.56633 -0.00000 0.56633
									}
								}
							}
						}
					}
				}
			}
		}
	}
}
MOTION
Frames: 11
Frame Time: .0083333
-0.1924 17.6808 7.6572 -9.1870 0.8752 16.8077 0.0000 0.0000 0.0000 -6.3186 -50.1840 10.0913 0.0226 -0.9705 -2.6676 -3.2696 43.7117 -51.6003 0.9872 6.3239 17.7273 0.0000 0.0000 0.0000 22.5884 23.4494 -14.1635 -0.4310 -4.2130 11.6766 0.1936 -14.2049 -17.8236 -0.0042 -0.4165 1.1443 6.6209 0.4377 9.3659 3.4716 1.3497 1.9293 -0.2692 0.6196 -3.1750 -2.5030 -7.3035 -3.2057 9.5847 -10.3026 6.2180 3.1916 -4.8833 3.3280 0.0000 -0.0000 0.0000 -121.9513 -60.3518 80.0485 119.0709 -56.5525 -84.8847 -0.0000 -0.0000 4.1278 15.0954 0.7194 0.1940 -7.1250 0.0000 -0.0000 -9.0838 30.6533 3.2192 0.0000 -0.0000 0.0000 54.2850 64.5375 20.7368 -125.1349 54.7787 -89.8943 0.0000 0.0000 9.4525 52.7334 -54.3933 -46.8980 7.1250 -0.0000 -0.0000 104.7085 -55.0786 -66.0764
-0.2260 17.6842 7.6450 -9.1664 1.3571 17.5029 0.0000 0.0000 0.0000 -4.7943 -50.5649 8.4706 0.0223 -0.9650 -2.6525 -3.3602 43.5848 -51.1127 1.0047 6.3782 17.8857 0.0000 0.0000 0.0000 22.4017 23.7984 -14.5903 -0.3864 -3.9917 11.0534 0.2913 -14.9634 -17.7758 -0.0070 -0.5417 1.4884 6.7483 0.2050 9.4361 3.9021 1.0708 2.0199 0.1408 0.4839 -3.1401 -2.9666 -7.3425 -3.7710 9.4890 -10.3107 6.0877 3.2231 -4.8898 3.4147 -0.0000 0.0000 0.0000 -126.3199 -62.6814 82.6060 114.1886 -57.6695 -80.7841 -0.0000 0.0000 -3.3101 7.3429 5.0633 0.6516 -7.1250 0.0000 -0.0000 -15.8988 34.7167 4.1481 -0.0000 0.0000 0.0000 53.8385 64.9015 20.8400 -125.9324 54.5099 -90.5446 0.0000 0.0000 11.0922 46.0916 -54.7445 -40.3083 7.1250 -0.0000 -0.0000 101.5032 -57.1331 -64.7216
-0.2563 17.6919 7.6394 -9.0793 1.7162 18.3266 0.0000 0.0000 0.0000 -3.4969 -51.5128 7.1644 0.0210 -0.9356 -2.5718 -2.7616 43.1816 -52.1246 1.1574 6.8302 19.2132 0.0000 0.0000 0.0000 22.0601 24.1784 -15.0898 -0.3379 -3.7354 10.3334 0.3987 -15.7105 -17.6269 -0.0094 -0.6268 1.7226 6.8003 -0.0203 9.4025 4.2102 0.7933 1.9245 0.4665 0.3433 -3.2381 -2.8745 -7.2411 -3.8759 9.1688 -10.1387 5.9051 3.1023 -4.8145 3.3282 -0.0000 -0.0000 0.0000 -129.4051 -64.7703 84.1750 108.6574 -58.6430 -76.0842 -0.0000 0.0000 -14.1261 0.2981 10.8965 0.0563 -7.1250 0.0000 -0.0000 -23.1505 39.7430 3.2005 -0.0000 -0.0000 0.0000 54.3456 65.2078 21.9297 -126.5272 54.3036 -91.0283 0.0000 0.0000 12.6765 35.3204 -55.9411 -30.4141 7.1250 -0.0000 -0.0000 97.5421 -60.5935 -64.7778
-0.2856 17.6966 7.6383 -9.3899 2.0415 18.9323 0.0000 0.0000 0.0000 -2.1210 -52.4364 6.4437 0.0215 -0.9459 -2.5999 -2.0034 42.7552 -53.5121 1.3667 7.3990 20.9029 0.0000 0.0000 0.0000 22.3106 24.6844 -15.1466 -0.2832 -3.4224 9.4572 0.5226 -16.5278 -17.4302 -0.0104 -0.6581 1.8086 7.2973 -0.4045 9.7314 4.3869 0.4071 1.5481 0.4264 0.1274 -3.8296 -2.1158 -6.8527 -3.1346 8.8390 -9.6244 5.8123 2.9046 -4.5734 3.0489 0.0000 0.0000 0.0000 -130.0822 -66.6377 83.7464 102.8486 -59.3669 -71.1036 -0.0000 0.0000 -24.9370 -5.1837 16.8221 -1.5039 -7.1250 0.0000 -0.0000 -30.0409 44.4935 0.4149 0.0000 0.0000 0.0000 57.1061 65.4375 24.8765 -126.3271 54.3735 -90.8658 0.0000 0.0000 13.9778 22.3591 -56.8731 -19.0077 7.1250 -0.0000 -0.0000 92.8526 -64.7690 -65.0853
-0.3188 17.6949 7.6412 -10.2472 2.2293 19.1466 0.0000 0.0000 0.0000 -0.6488 -52.8833 6.4627 0.0266 -1.0522 -2.8924 -1.6202 42.6909 -54.4214 1.5156 7.7744 22.0309 0.0000 0.0000 0.0000 23.4083 25.5446 -14.5488 -0.2317 -3.0981 8.5521 0.6639 -17.4821 -17.3324 -0.0122 -0.7120 1.9567 9.1032 -0.1506 10.5192 4.5712 1.0414 1.5423 -0.4621 0.4026 -4.2171 -2.1478 -7.2210 -3.8723 8.6605 -10.0994 5.7085 2.8003 -4.7985 3.1708 -0.0000 0.0000 0.0000 -134.9576 -67.5163 88.4050 98.0030 -59.7566 -66.9251 -0.0000 0.0000 -35.2801 -4.9536 17.0214 -1.4534 -7.1250 0.0000 -0.0000 -29.9425 44.6944 0.2492 -0.0000 0.0000 0.0000 55.5693 65.1432 22.9277 -126.2254 54.4089 -90.7831 0.0000 0.0000 15.2470 8.8910 -57.3709 -7.5053 7.1250 -0.0000 -0.0000 88.4094 -69.1818 -65.9609
-0.3421 17.7005 7.6491 -10.0348 1.7675 19.6610 0.0000 0.0000 0.0000 -0.8788 -54.3404 7.0415 0.0273 -1.0663 -2.9314 -0.5590 42.8185 -57.2105 1.7901 8.4145 23.9802 0.0000 0.0000 0.0000 22.9660 26.5017 -14.4355 -0.1954 -2.8465 7.8517 0.7701 -18.1537 -17.2183 -0.0173 -0.8502 2.3368 9.1862 -0.0876 10.8391 4.5959 1.1804 1.4991 -0.5024 0.4606 -4.4300 -2.1927 -7.1530 -4.2238 8.4909 -9.9977 5.7603 2.7438 -4.7441 3.2391 -0.0000 -0.0000 0.0000 -131.7060 -68.1347 85.4975 98.1277 -59.7489 -67.0329 -0.0000 0.0000 -46.3704 -2.1013 18.0936 -0.6529 -7.1250 0.0000 -0.0000 -28.0316 45.9884 -0.7424 -0.0000 -0.0000 0.0000 56.2332 65.6098 23.0748 -125.7139 54.5844 -90.3667 0.0000 0.0000 17.4950 -2.9955 -54.8221 2.4492 7.1250 -0.0000 -0.0000 76.7614 -72.8588 -58.7426
-0.3468 17.7146 7.6589 -8.6885 0.7629 20.5636 0.0000 0.0000 0.0000 -2.5934 -56.7154 7.6818 0.0207 -0.9290 -2.5535 1.6841 42.5251 -61.7603 2.2449 9.3586 26.9238 0.0000 0.0000 0.0000 20.8212 27.1441 -15.1264 -0.1720 -2.6716 7.3658 0.8118 -18.3017 -16.9070 -0.0222 -0.9611 2.6417 8.0797 0.2004 10.5667 4.2722 1.3885 1.4315 -0.2594 0.5801 -4.3511 -1.7396 -7.1137 -3.8219 8.1174 -9.8898 5.0539 2.5615 -4.7212 2.8595 0.0000 -0.0000 0.0000 -129.0407 -68.3483 83.0158 100.1943 -59.6036 -68.8168 -0.0000 0.0000 -54.1192 2.6797 20.5800 0.9426 -7.1250 0.0000 -0.0000 -25.0325 48.8572 -2.5268 0.0000 -0.0000 0.0000 55.5528 66.4165 22.2238 -124.5519 54.9696 -89.4174 0.0000 0.0000 23.3648 -10.3411 -53.6147 8.3569 7.1250 -0.0000 -0.0000 69.7982 -75.2689 -54.9442
-0.3509 17.7225 7.6698 -8.0224 -0.1489 21.1195 0.0000 0.0000 0.0000 -3.6892 -58.1304 8.3774 0.0176 -0.8563 -2.3536 3.6527 42.0101 -65.1210 2.6068 10.0296 29.0725 0.0000 0.0000 0.0000 19.6826 27.6866 -15.4620 -0.1539 -2.5277 6.9666 0.8397 -18.3290 -16.5102 -0.0229 -0.9765 2.6843 7.6196 0.4944 10.4603 4.1820 1.6906 1.6259 -0.1392 0.7464 -4.0778 -1.8997 -7.1286 -3.8597 8.2373 -9.8643 4.4361 2.6350 -4.7247 2.6744 -0.0000 0.0000 0.0000 -128.3990 -68.1971 82.3575 102.3537 -59.4154 -70.6776 -0.0000 0.0000 -53.8146 7.1735 20.8840 2.5689 -7.1250 0.0000 -0.0000 -21.0723 49.8003 -2.5963 -0.0000 0.0000 0.0000 52.8383 68.2124 19.0338 -123.0081 55.4536 -88.1495 0.0000 0.0000 28.5684 -10.6490 -52.3441 8.4670 7.1250 -0.0000 -0.0000 65.0231 -75.0068 -50.2955
-0.3596 17.7234 7.6829 -8.1100 -0.8520 21.3594 0.0000 0.0000 0.0000 -4.0869 -58.7044 9.2232 0.0187 -0.8825 -2.4256 4.9544 41.7230 -67.2817 2.8342 10.4217 30.3533 0.0000 0.0000 0.0000 19.6925 28.2440 -15.3578 -0.1387 -2.4007 6.6144 0.8776 -18.4063 -16.0496 -0.0200 -0.9127 2.5086 7.7197 0.4450 10.5981 4.4863 1.6606 1.6702 0.1269 0.7305 -4.1164 -2.3311 -6.7756 -2.8902 8.0741 -9.3025 3.6554 2.7221 -4.4988 2.2189 -0.0000 -0.0000 0.0000 -126.0387 -67.9508 79.1664 103.8059 -59.2674 -71.9268 -0.0000 0.0000 -52.8373 11.0071 20.8620 3.9625 -7.1250 0.0000 -0.0000 -17.4747 50.3677 -2.3750 -0.0000 -0.0000 0.0000 53.3957 69.8197 19.4186 -119.7899 56.3657 -85.4840 0.0000 0.0000 30.1081 -9.5688 -51.4755 7.5131 7.1250 -0.0000 -0.0000 62.6288 -74.2846 -47.3798
-0.3688 17.7243 7.6900 -8.1387 -1.6969 21.5934 0.0000 0.0000 0.0000 -4.6271 -59.2761 10.1432 0.0201 -0.9152 -2.5155 6.4755 41.3178 -69.6701 3.1131 10.8760 31.8628 0.0000 0.0000 0.0000 19.5650 28.8639 -15.3980 -0.1319 -2.3410 6.4489 0.9119 -18.4445 -15.5201 -0.0137 -0.7570 2.0803 8.0097 0.6486 10.9545 4.4488 1.9935 1.7404 -0.1236 0.8867 -4.2113 -1.9033 -6.6379 -2.6110 7.5862 -9.0764 3.1254 2.5074 -4.4088 1.9263 -0.0000 0.0000 0.0000 -124.5306 -67.5940 77.4051 104.6612 -59.1720 -72.6617 -0.0000 0.0000 -54.1852 13.3401 20.6365 4.7773 -7.1250 0.0000 -0.0000 -15.1632 50.5163 -2.1033 -0.0000 0.0000 0.0000 52.1417 71.3692 17.4554 -115.2572 57.4467 -81.6859 0.0000 0.0000 31.6232 -8.8696 -51.8897 7.0000 7.1250 -0.0000 -0.0000 64.4143 -74.1783 -48.8454
-0.3794 17.7290 7.6825 -7.8028 -2.9074 21.7776 0.0000 0.0000 0.0000 -5.6047 -59.6870 10.9423 0.0199 -0.9108 -2.5035 8.0873 40.7283 -72.0433 3.4072 11.3268 33.3901 0.0000 0.0000 0.0000 18.8106 29.7982 -15.5921 -0.1350 -2.3685 6.5253 0.9433 -18.5188 -15.1200 -0.0109 -0.6731 1.8497 7.8676 1.1182 11.6931 4.1446 2.6521 1.8641 -0.4737 1.2035 -4.4427 -1.7726 -6.7582 -3.4040 7.6870 -9.2627 3.2975 2.4823 -4.4770 2.1338 -0.0000 -0.0000 0.0000 -123.8665 -67.0962 76.7640 106.0691 -59.0015 -73.8696 -0.0000 0.0000 -58.0057 13.8889 20.7638 5.0098 -7.1250 0.0000 -0.0000 -14.6906 50.7289 -2.1131 -0.0000 -0.0000 0.0000 49.1098 72.8329 13.4632 -109.8501 58.4575 -77.1017 0.0000 0.0000 32.8752 -5.6992 -53.1234 4.5644 7.1250 -0.0000 -0.0000 70.1293 -73.4127 -53.1547
